<?xml version="1.0" encoding="UTF-8" standalone="no"?>
<!-- Created with Inkscape (http://www.inkscape.org/) -->

<svg
   xmlns:dc="http://purl.org/dc/elements/1.1/"
   xmlns:cc="http://creativecommons.org/ns#"
   xmlns:rdf="http://www.w3.org/1999/02/22-rdf-syntax-ns#"
   xmlns:svg="http://www.w3.org/2000/svg"
   xmlns="http://www.w3.org/2000/svg"
   xmlns:sodipodi="http://sodipodi.sourceforge.net/DTD/sodipodi-0.dtd"
   xmlns:inkscape="http://www.inkscape.org/namespaces/inkscape"
   width="74mm"
   height="52mm"
   viewBox="0 0 74 52"
   version="1.1"
   id="SVGRoot"
   inkscape:version="0.92.4 (5da689c313, 2019-01-14)"
   sodipodi:docname="logo.svg">
  <defs
     id="defs3779" />
  <sodipodi:namedview
     id="base"
     pagecolor="#ffffff"
     bordercolor="#666666"
     borderopacity="1.0"
     inkscape:pageopacity="0.0"
     inkscape:pageshadow="2"
     inkscape:zoom="2.8284271"
     inkscape:cx="128.40744"
     inkscape:cy="137.40978"
     inkscape:document-units="mm"
     inkscape:current-layer="layer1"
     showgrid="false"
     inkscape:window-width="1366"
     inkscape:window-height="705"
     inkscape:window-x="-8"
     inkscape:window-y="-8"
     inkscape:window-maximized="1" />
  <metadata
     id="metadata3782">
    <rdf:RDF>
      <cc:Work
         rdf:about="">
        <dc:format>image/svg+xml</dc:format>
        <dc:type
           rdf:resource="http://purl.org/dc/dcmitype/StillImage" />
        <dc:title></dc:title>
      </cc:Work>
    </rdf:RDF>
  </metadata>
  <g
     inkscape:label="Capa 1"
     inkscape:groupmode="layer"
     id="layer1">
    <text
       xml:space="preserve"
       style="font-style:normal;font-variant:normal;font-weight:normal;font-stretch:normal;font-size:10.58333302px;line-height:1.25;font-family:'Bell MT';-inkscape-font-specification:'Bell MT';letter-spacing:0px;word-spacing:0px;fill:#000000;fill-opacity:1;stroke:none;stroke-width:0.26458332"
       x="1.0590016"
       y="10.246929"
       id="text3802"><tspan
         sodipodi:role="line"
         id="tspan3800"
         x="1.0590016"
         y="10.246929"
         style="font-style:normal;font-variant:normal;font-weight:normal;font-stretch:normal;font-family:'Bell MT';-inkscape-font-specification:'Bell MT';stroke-width:0.26458332">MEQ</tspan></text>
    <text
       xml:space="preserve"
       style="font-style:normal;font-weight:normal;font-size:3.52777767px;line-height:1.25;font-family:sans-serif;letter-spacing:0px;word-spacing:0px;fill:#000000;fill-opacity:1;stroke:none;stroke-width:0.26458332"
       x="24.210045"
       y="12.099016"
       id="text3806"><tspan
         sodipodi:role="line"
         id="tspan3804"
         x="24.210045"
         y="12.099016"
         style="font-style:normal;font-variant:normal;font-weight:bold;font-stretch:normal;font-size:3.52777767px;font-family:'Bell MT';-inkscape-font-specification:'Bell MT Bold';stroke-width:0.26458332">DESIGN</tspan></text>
    <path
       style="fill:#0000ff;stroke-width:0.26458332"
       id="path3846"
       d="m 34.063475,1.8544617 c -0.189815,0.438759 -0.410914,0.863441 -0.673177,1.263073 -0.295791,0.406247 -0.612587,0.794636 -0.969057,1.148915 -0.440653,0.40952 -0.899581,0.799912 -1.37227,1.171879 -0.461129,0.342783 -0.945893,0.650845 -1.428882,0.961201 -0.798819,0.492204 -1.546331,1.173844 -2.480273,1.352205 -0.334833,0.0065 -0.494961,-0.267919 -0.619813,-0.539628 -0.117353,-0.29663 -0.128415,-0.61536 -0.136012,-0.929954 -0.0083,-0.506649 0.237221,-0.933827 0.498184,-1.348816 0.322086,-0.455951 0.651746,-0.909452 1.018374,-1.330928 0.23545,-0.29077 0.514067,-0.533632 0.812906,-0.755672 0.676237,-0.481754 0.337346,-0.246866 1.946859,-1.123989 0.100084,-0.05454 0.221499,-0.05601 0.328033,-0.09653 0.05253,-0.01998 0.101995,-0.04724 0.152993,-0.07086 0.0551,-0.01971 0.11021,-0.03942 0.165314,-0.05913 0.32316,-0.09022 0.652595,-0.162029 0.982692,-0.223386 0.392496,-0.04033 0.783767,-0.05741 1.175012,-0.10975 0.375846,-0.05733 0.755618,-0.07235 1.135046,-0.08268 0.319731,0.0052 0.643859,-0.03656 0.960403,0.01617 0.304949,0.02849 0.474816,0.20947 0.575774,0.483345 0.06808,0.255852 0.06437,0.522813 0.06532,0.785509 -0.01762,0.2298 -0.06057,0.46156 -0.133617,0.680501 -0.07972,0.238608 -0.243948,0.427899 -0.417928,0.603517 -0.599884,0.614319 -1.549228,1.01561 -2.213215,1.400942 0.530113,-0.305102 1.059291,-0.611831 1.590336,-0.915305 0.03015,-0.01723 -0.05734,0.03931 -0.08751,0.0565 -0.592439,0.337498 -1.186047,0.672945 -1.780167,1.007474 -0.03262,0.01837 -0.132431,0.06986 -0.09999,0.05118 1.687725,-0.971728 2.088423,-1.24387 1.493245,-0.844452 -0.592188,0.342259 -1.190384,0.674325 -1.77656,1.026777 -0.523682,0.314874 1.058201,-0.611368 1.589037,-0.914025 0.0306,-0.01745 -0.05761,0.04076 -0.08816,0.0583 -0.913434,0.524306 -1.220145,0.930183 -2.001793,1.059552 -0.249692,0.0695 -0.494278,0.155318 -0.746011,0.217902 -0.270618,0.03779 -0.529418,0.121363 -0.799375,0.164374 -0.333616,0.0343 -0.669499,0.03738 -1.00457,0.03918 -0.324794,0.0017 -0.649594,0.002 -0.974394,0.0022 -0.27573,-0.02918 -0.437534,-0.22064 -0.455856,-0.488898 0.412589,-1.58391 1.407681,-1.388146 2.150777,-0.931494 0.196292,0.137261 0.344162,0.339445 0.45576,0.549362 0.09994,0.236736 0.171757,0.483258 0.25276,0.726727 0.121353,0.207983 0.175394,0.439858 0.250515,0.665225 0.06307,0.214906 0.143174,0.42 0.245057,0.619041 0.127106,0.176294 0.237339,0.36195 0.380055,0.526251 0.178015,0.168007 0.404363,0.242607 0.624862,0.334727 0.284662,0.135003 0.590857,0.194696 0.89272,0.276037 0.358679,0.136295 0.731639,0.210513 1.111662,0.251817 0.350333,0.0301 0.702377,0.02949 1.053719,0.02931 0.301459,-0.0013 0.602914,-0.0033 0.904373,-0.0043 0.266279,-7.94e-4 0.532558,-7.94e-4 0.798835,-7.94e-4 0,0 -1.584553,1.1513046 -1.584553,1.1513046 v 0 c -0.265903,7.7e-5 -0.531809,2.14e-4 -0.797713,5.29e-4 -0.299701,2.65e-4 -0.599406,7.94e-4 -0.899102,-0.0011 -0.355989,-0.0033 -0.713346,-0.0033 -1.067003,-0.04935 -0.383911,-0.05669 -0.756402,-0.153014 -1.126083,-0.270793 -0.312296,-0.07518 -0.618255,-0.165558 -0.913421,-0.2941076 -0.248838,-0.09818 -0.489262,-0.215368 -0.677688,-0.411022 -0.151437,-0.176776 -0.273957,-0.374209 -0.405212,-0.566124 -0.105235,-0.207359 -0.195807,-0.418814 -0.259191,-0.643157 -0.07828,-0.22484 -0.121132,-0.461394 -0.246967,-0.668986 -0.0775,-0.233381 -0.15098,-0.467563 -0.241457,-0.696306 -0.09402,-0.18095 -0.221726,-0.352502 -0.40128,-0.454906 -0.06286,-0.03521 -0.145092,-0.0898 -0.22348,-0.07545 -0.01892,0.0035 -0.06585,0.03972 -0.04937,0.02981 1.62756,-0.979339 2.218118,-1.108217 1.543756,-0.953016 -0.141422,0.129594 0.173318,0.226534 0.266269,0.200219 0.322363,0.0012 0.644747,0.0034 0.967102,-4.24e-4 0.331388,-0.0068 0.665118,-0.01008 0.992034,-0.071 0.26384,-0.05536 0.525955,-0.119335 0.789062,-0.177602 0.250045,-0.07525 0.50024,-0.149686 0.752666,-0.21666 0.0678,-0.02286 0.260924,-0.116171 0.199204,-0.07997 -0.527814,0.30961 -1.05901,0.613418 -1.588235,0.920607 -0.03021,0.01753 0.061,-0.03403 0.09117,-0.05164 0.589383,-0.343863 1.183706,-0.679439 1.767477,-1.032752 0.52105,-0.315354 -1.052867,0.612574 -1.579297,0.918861 0.659775,-0.427331 0.221681,-0.145692 1.867987,-1.0941 0.03323,-0.01914 0.137279,-0.06818 0.104193,-0.04879 -0.528394,0.309701 -1.060977,0.612208 -1.590519,0.919945 -0.02972,0.01727 0.06067,-0.03234 0.091,-0.04852 0.589055,-0.343387 1.178113,-0.686775 1.767168,-1.030163 -2.889798,1.687616 -1.71155,1.068596 -1.124529,0.588988 0.151794,-0.174947 0.347993,-0.314397 0.448561,-0.529763 0.07632,-0.203281 0.12487,-0.408903 0.167854,-0.622818 5.29e-4,-0.24221 0.0074,-0.487427 -0.03862,-0.726331 -0.06974,-0.225164 -0.222887,-0.285054 -0.453207,-0.299456 -0.311862,-0.0164 -0.624626,-0.0031 -0.936694,0.0014 -0.375348,0.01406 -0.749776,0.04221 -1.121767,0.09587 -0.390498,0.04779 -0.785778,0.04817 -1.172625,0.124676 -0.323721,0.06843 -0.650986,0.131845 -0.961777,0.247673 -0.162867,0.0644 -0.328821,0.11781 -0.492466,0.179603 -0.04933,0.01863 -0.190899,0.08869 -0.145743,0.06147 0.461163,-0.277938 2.129859,-1.256529 1.395193,-0.814076 -0.298286,0.223486 -0.611119,0.429398 -0.843053,0.728244 -0.384947,0.400534 -0.701595,0.86051 -1.036378,1.302525 -0.247301,0.380564 -0.517504,0.764488 -0.529148,1.23587 0.0078,0.288284 0.0092,0.582603 0.104984,0.858212 0.09738,0.220187 0.206216,0.390262 0.470673,0.310175 0.0808,-0.02674 0.311306,-0.135591 0.238069,-0.09224 -2.767944,1.638433 -1.853591,1.102372 -1.278985,0.734701 0.05147,-0.03293 0.104108,-0.064 0.156165,-0.096 0.478978,-0.327271 0.989399,-0.609111 1.454967,-0.957479 0.477372,-0.354897 0.922465,-0.751942 1.366997,-1.146848 0.366543,-0.336999 0.679167,-0.719082 0.985041,-1.110423 0.267044,-0.387224 0.47992,-0.770885 0.667493,-1.202613 0,0 1.778495,-0.835248 1.778495,-0.835248 z"
       inkscape:connector-curvature="0" />
  </g>
</svg>
